<svg width="512" height="512" viewBox="0 0 512 512" xmlns="http://www.w3.org/2000/svg">
  <defs>
    <linearGradient id="cinescopeGradient" x1="0%" y1="0%" x2="100%" y2="100%">
      <stop offset="0%" stop-color="#ff4b8b" />
      <stop offset="45%" stop-color="#7b5cff" />
      <stop offset="100%" stop-color="#00e0ff" />
    </linearGradient>
    <filter id="glow">
      <feGaussianBlur stdDeviation="12" result="coloredBlur" />
      <feMerge>
        <feMergeNode in="coloredBlur" />
        <feMergeNode in="SourceGraphic" />
      </feMerge>
    </filter>
  </defs>
  <rect x="32" y="32" width="448" height="448" rx="140" fill="#050509" />
  <rect x="56" y="56" width="400" height="400" rx="128" fill="#050712" />
  <circle cx="256" cy="256" r="140" fill="none" stroke="url(#cinescopeGradient)" stroke-width="26" filter="url(#glow)" />
  <path
    d="M316 184c-18-10-38-16-60-16-56 0-96 40-96 88s40 88 96 88c22 0 42-6 60-16v-40c-14 14-32 24-54 24-38 0-64-26-64-56s26-56 64-56c22 0 40 10 54 24v-40z"
    fill="#ffffff"
  />
</svg>
